<?xml version="1.0" encoding="utf-8"?>
<!-- Generator: Adobe Illustrator 26.0.3, SVG Export Plug-In . SVG Version: 6.00 Build 0)  -->
<svg version="1.1" id="Layer_1" xmlns="http://www.w3.org/2000/svg" xmlns:xlink="http://www.w3.org/1999/xlink" x="0px" y="0px"
	 viewBox="0 0 500 313" style="enable-background:new 0 0 500 313;" xml:space="preserve">
<style type="text/css">
	.st0{fill:#FFFFFF;}
	.st1{fill:#B6B4B5;}
</style>
<rect class="st0" width="500" height="313"/>
<g>
	<path class="st0" d="M89.3,43.2c9.1,0,18.3,0,27.4-0.1c11.4,0,19.9,5.9,19.9,12v59.7c0.1,6.7-8.5,10.1-15.3,10.1
		c-3.5,0-9.8,0-14.6,0H89.3L89.3,43.2L89.3,43.2z M116.8,107.1V60.2c0-3.1-3.2-3.2-7.8-3.2v27.6v26.8
		C114,111.3,116.8,110.3,116.8,107.1L116.8,107.1z"/>
	<path class="st0" d="M146.2,110l0-66.9H167v65c0,3.9,0,4.9,3.1,4.9c3.1,0,3-1.1,3-4.9l0.1-65H194c0,22,0,45.2,0,66.9
		c0,3.8-0.7,17-24.1,17C146.4,127,146.2,114,146.2,110L146.2,110z"/>
	<path class="st0" d="M203.1,43.1c4.6,0,11.6,0,17.1,0c3.2,11.1,8.3,25.4,12.8,37.2V43.1H250v82.1h-17.9c-4-12-8.1-24-12-37v37
		h-17.1L203.1,43.1L203.1,43.1z"/>
	<path class="st0" d="M259.7,43.2c9.1,0,18.3,0,27.4-0.1c11.4,0,19.9,5.9,19.9,12v59.7c0.1,6.7-8.5,10.1-15.3,10.1
		c-3.5,0-9.8,0-14.6,0h-17.5V43.2L259.7,43.2z M287.3,107.1V60.2c0-3.1-3.2-3.2-7.8-3.2v27.6v26.8
		C284.4,111.3,287.3,110.3,287.3,107.1L287.3,107.1z"/>
	<path class="st0" d="M317,43h34.9v15.9h-14V76h13v14h-13v19h14.9v15.9H317L317,43L317,43z"/>
	<path class="st0" d="M360.3,125.1V43.7c11.3,0,20,0.2,26.7,0.2c13.4,0,20.1,3.6,20.1,21.7c0,14.3-1.9,13.9-11,16.6
		c4.5,0.5,10.9,4.6,10.9,8.8l0.1,34.1H388c0-11.5-0.2-23.8-0.2-35.1c-1.3-1.4-2.2-1.9-6.7-1.9v37L360.3,125.1L360.3,125.1z
		 M388,73.1c0-4.4,0-14.3,0-14.3c-1.1-1.4-2.3-1.9-4.3-1.9h-2.6v19.2h1.9C385.2,76.1,386.9,75,388,73.1L388,73.1z"/>
	<path class="st0" d="M81.2,214.9v-81.3c9.3,0,18.7,0,27.9,0c0.8,8.1,4.9,32.9,5.5,37.4l5.5-37.4h27v81.3h-18.6V160l-7.4,54.9h-13
		c-1.6-9.5-5.8-37.8-8.2-53.8c0,15.2,0.1,36.7,0.1,53.8L81.2,214.9L81.2,214.9z"/>
	<path class="st0" d="M156.3,133.2H177V215h-20.7L156.3,133.2L156.3,133.2z"/>
	<path class="st0" d="M186,133h36.1V149h-14.9v16.2h13v14.9h-13v34.8H186L186,133L186,133z"/>
	<path class="st0" d="M227.6,133h36.1V149h-14.9v16.2h13v14.9h-13v34.8h-21.1V133L227.6,133z"/>
	<path class="st0" d="M269.3,133.1h20.8v66h13V215h-33.8L269.3,133.1L269.3,133.1z"/>
	<path class="st0" d="M308.5,133.2h20.7V215h-20.7V133.2L308.5,133.2z"/>
	<path class="st0" d="M338.9,132.6c4.6,0,11.6,0,17.1,0c3.2,11.1,8.3,25.4,12.8,37.2v-37.2h17.1v82.1h-17.9c-4-12-8.1-24-12-37v37
		h-17.1L338.9,132.6L338.9,132.6z"/>
</g>
<g>
	<rect x="390" y="133" class="st1" width="35" height="9"/>
	<path class="st1" d="M390,146h35v8l-14,4.1l14-0.1v9h-35v-9l15-4l-15,0L390,146L390,146z"/>
	<path class="st1" d="M410,192v-9h9c0,0,1.1,0,1.1-2s-1-2.1-1-2.1h-23c0,0-1.1,0.1-1.1,2c0,2,1,2,1,2h7.9v8.9h-9c0,0-5.9,0-5.9-10.6
		S395,170,395,170h25c0,0,6-0.2,6,11c0,11.2-6,11-6,11L410,192L410,192z"/>
</g>
<g>
	<path class="st0" d="M392,199H406v13c0,4.7-7.1,14-14,14v-6c1.3,0,4-3.8,4-5.1h-4L392,199L392,199z"/>
	<path class="st0" d="M110.4,229.9l-0.4,0.8c-2.6,4.7-6.1,11-8.9,16.1l-0.4,0.8l0.9,0l2.9,0h0.3l0.2-0.2l2.1-3.8h7.3l2.1,3.7
		l0.2,0.2h0.3h2.9h0.9l-0.4-0.8l-9.2-16L110.4,229.9L110.4,229.9z M110.6,236.1l2.2,4.4h-4.3C109.2,239,109.9,237.5,110.6,236.1
		L110.6,236.1z"/>
	<path class="st0" d="M342.1,229.9l-0.4,0.8c-2.6,4.7-6.1,11-8.9,16.1l-0.4,0.8l0.9,0l2.9,0h0.3l0.2-0.2l2.1-3.8h7.3l2.1,3.7
		l0.2,0.2h0.3h2.9h0.9l-0.4-0.8l-9.2-16L342.1,229.9L342.1,229.9z M342.3,236.1l2.2,4.4h-4.3C340.9,239,341.6,237.4,342.3,236.1
		L342.3,236.1z"/>
	<path class="st0" d="M363.1,230v0.5v16v0.5h0.5l2.9,0.1h0.5v-0.5v-9.9l10.2,10.2l0.2,0.1h0.2h3h0.5v-0.5v-16V230h-0.5h-3H377v0.5
		v9.9l-10.2-10.2l-0.1-0.2h-0.2h-3L363.1,230L363.1,230z"/>
	<path class="st0" d="M231,230c-1.6,0-3.9,0.4-5.9,1.7s-3.6,3.5-3.6,6.8c0,3.4,1.5,5.7,3.4,7.1s4.2,1.9,6,1.9c3.3,0,5.3-1.1,5.3-1.1
		l0.2-0.2v-0.3v-2.4v-0.9l-0.8,0.5c-1.4,0.9-2.3,1.5-4.2,1.5c-0.9,0-2.8-0.5-4.3-1.5s-2.7-2.5-2.7-4.6c0-2.1,0.9-3.4,2.2-4.2
		s2.9-1.2,4.1-1.2c2.5,0,3.3,0.3,5,1.3l0.8,0.5V234v-2v-0.3l-0.2-0.1C234.8,230.8,234.1,230,231,230L231,230z"/>
	<path class="st0" d="M391.5,230l0.5,0.8l5.9,8.7c0,0.3,0,6.8,0,7.1v0.5h0.5h3.2h0.5v-0.5v-6.8l5.9-9l0.5-0.8h-0.9h-3.1h-0.2
		l-0.2,0.2l-4.1,5.4l-4.1-5.4l-0.2-0.2h-0.2h-3.1L391.5,230L391.5,230z"/>
	<path class="st0" d="M155.5,230.4v0.5v16v0.5h0.5h10.1h0.5V247v-1.5V245h-0.5h-7.6v-5.6h6.6h0.5v-0.5v-1.8v-0.5h-0.5h-6.6V233h7.6
		h0.5v-0.5v-1.1v-0.5v-0.5h-0.5H156L155.5,230.4L155.5,230.4z"/>
	<path class="st0" d="M258.5,230.5c-2.4,0-4.9,0.8-6.8,2.2s-3.2,3.4-3.2,5.8c0,2.4,1.3,4.7,3.2,6.3s4.3,2.7,6.8,2.7
		c2.4,0,4.9-1,6.8-2.7s3.2-3.9,3.2-6.3c0-2.4-1.3-4.4-3.2-5.8S260.9,230.5,258.5,230.5L258.5,230.5z M258.5,233.1
		c1.6,0,3.4,0.6,4.7,1.6s2.2,2.3,2.2,3.8c0,1.5-0.9,3-2.2,4.2s-3.1,1.9-4.6,1.9c-1.5,0-3.4-0.7-4.8-1.9s-2.3-2.7-2.3-4.2
		c0-1.5,0.9-2.8,2.2-3.8S256.9,233.1,258.5,233.1L258.5,233.1z"/>
	<path class="st0" d="M81.5,230.6v0.5v14.8v0.5H82h1.9h0.5v-0.5v-5.3H88c0,0,0,0,0,0c0,0,0,0,0.1,0c0,0,0.1,0,0.2,0
		c0.1,0,0.3,0,0.4-0.1c0.4-0.1,0.9-0.3,1.4-0.6c1-0.7,2-2,2-4.3c0-2.3-0.7-3.5-1.4-4.2c-0.4-0.3-0.8-0.5-1.1-0.6
		c-0.1,0-0.3-0.1-0.4-0.1c0,0-0.1,0-0.1,0c0,0,0,0.2-0.1,0.5c0,0,0,0,0,0v-0.5h0H82L81.5,230.6L81.5,230.6z M84.5,233.5h2.3h0.1
		c0,0,0,0,0.1,0c0.1,0,0.2,0,0.3,0.1c0.2,0,0.5,0.1,0.8,0.2c0.6,0.2,1.1,0.6,1.1,1.7c0,1.1-0.6,1.5-1.2,1.8
		c-0.3,0.1-0.7,0.2-0.9,0.3c-0.1,0-0.2,0-0.3,0c0,0-0.1,0-0.1,0h0c0,0,0,0,0,0h-1.9L84.5,233.5L84.5,233.5z"/>
	<path class="st0" d="M131.5,230.6v0.5v14.8v0.5h0.5h1.9h0.5v-0.5v-5.3h3.6c0,0,0,0,0,0c0,0,0,0,0.1,0c0,0,0.1,0,0.2,0
		c0.1,0,0.3,0,0.5-0.1c0.4-0.1,0.8-0.3,1.3-0.6c1-0.7,2-2,2-4.3c0-2.3-0.7-3.5-1.5-4.2c-0.4-0.3-0.8-0.5-1.1-0.6
		c-0.1,0-0.3-0.1-0.4-0.1c0,0-0.1,0-0.1,0c0,0,0,0.2,0,0.5c0,0,0,0,0,0v-0.5h0h-7L131.5,230.6L131.5,230.6z M134.5,233.5h2.3h0
		c0,0,0,0,0.1,0c0.1,0,0.2,0,0.3,0.1c0.2,0,0.5,0.1,0.8,0.2c0.6,0.2,1,0.6,1,1.7c0,1.1-0.6,1.5-1.2,1.8c-0.3,0.1-0.7,0.2-0.9,0.3
		c-0.1,0-0.2,0-0.3,0c0,0-0.1,0-0.1,0c0,0,0,0-0.1,0h-1.9L134.5,233.5L134.5,233.5z"/>
	<path class="st0" d="M179.5,230.6v0.5v14.8v0.5h0.5h1.9h0.5v-0.5v-5.3l1.3,0l4,5.7l0.1,0.2h0.3l2.8,0h1.1l-0.7-0.8l-4.4-5.2
		c0.3-0.1,0.7-0.2,1.2-0.5c1-0.7,2-2,2-4.3c0-2.3-0.7-3.5-1.4-4.2c-0.4-0.3-0.8-0.5-1.1-0.6c-0.1,0-0.3-0.1-0.4-0.1c0,0-0.1,0-0.1,0
		c0,0,0,0.2-0.1,0.5c0,0,0,0,0,0v-0.5h0H180L179.5,230.6L179.5,230.6z M182.5,233.5h2.3h0.1c0,0,0,0,0.1,0c0.1,0,0.2,0,0.3,0.1
		c0.2,0,0.5,0.1,0.8,0.2c0.6,0.2,1.1,0.6,1.1,1.7c0,1.1-0.6,1.5-1.2,1.8c-0.3,0.1-0.7,0.2-0.9,0.3c-0.1,0-0.2,0-0.3,0
		c0,0-0.1,0-0.1,0c0,0,0,0-0.1,0h-1.9L182.5,233.5L182.5,233.5z"/>
	<path class="st0" d="M312.5,230.6v0.5v14.8v0.5h0.5h2h0.5v-0.5v-5.3h3.5h0c0,0,0,0,0,0c0,0,0,0,0,0c0,0,0.1,0,0.2,0
		c0.1,0,0.3,0,0.5-0.1c0.4-0.1,0.9-0.3,1.4-0.6c1-0.7,2-2,2-4.3c0-2.3-0.7-3.5-1.5-4.2c-0.4-0.3-0.8-0.5-1.1-0.6
		c-0.1,0-0.3-0.1-0.3-0.1c0,0-0.1,0-0.1,0c0,0,0,0.2,0,0.5c0,0,0,0,0,0v-0.5h0h-7L312.5,230.6L312.5,230.6z M315.5,233.5h2.3h0
		c0,0,0.1,0,0.1,0c0.1,0,0.2,0,0.3,0.1c0.2,0,0.5,0.1,0.8,0.2c0.6,0.2,1,0.6,1,1.7c0,1.1-0.6,1.5-1.2,1.8c-0.3,0.1-0.7,0.2-0.9,0.3
		c-0.1,0-0.2,0-0.3,0c0,0-0.1,0-0.1,0c0,0,0,0-0.1,0h-1.9L315.5,233.5L315.5,233.5z"/>
	<path class="st0" d="M297.3,231.5l-0.1,0.2l-5.7,7.9l-5.7-7.9l-0.2-0.2h-0.2h-2.9H282v0.5v14.5v0.5h0.5h2l0.5,0v-0.5v-10.5l6.1,7.8
		l0.4,0.5l0.4-0.5l6.1-7.9v10.6v0.5h0.5h2.1h0.5v-0.5V232v-0.5h-0.5h-2.9H297.3L297.3,231.5z"/>
</g>
</svg>
